HIERARCHY
ROOT ui
{
	 OFFSET 0 0 0
	 CHANNELS 3 XPosition YPosition Z Position
	 EndSite
	 {
	 OFFSET 0 -1 0
	 }
}
ROOT li
{
	 OFFSET 0 0 0
	 CHANNELS 3 XPosition YPosition Z Position
	 EndSite
	 {
	 OFFSET 0 -1 0
	 }
}
ROOT ul
{
	 OFFSET 0 0 0
	 CHANNELS 3 XPosition YPosition Z Position
	 EndSite
	 {
	 OFFSET 0 -1 0
	 }
}
ROOT ll
{
	 OFFSET 0 0 0
	 CHANNELS 3 XPosition YPosition Z Position
	 EndSite
	 {
	 OFFSET 0 -1 0
	 }
}
ROOT tt
{
	 OFFSET 0 0 0
	 CHANNELS 3 XPosition YPosition Z Position
	 EndSite
	 {
	 OFFSET 0 -1 0
	 }
}
ROOT tb
{
	 OFFSET 0 0 0
	 CHANNELS 3 XPosition YPosition Z Position
	 EndSite
	 {
	 OFFSET 0 -1 0
	 }
}
ROOT td
{
	 OFFSET 0 0 0
	 CHANNELS 3 XPosition YPosition Z Position
	 EndSite
	 {
	 OFFSET 0 -1 0
	 }
}
ROOT v
{
	 OFFSET 0 0 0
	 CHANNELS 3 XPosition YPosition Z Position
	 EndSite
	 {
	 OFFSET 0 -1 0
	 }
}
ROOT bn
{
	 OFFSET 0 0 0
	 CHANNELS 3 XPosition YPosition Z Position
	 EndSite
	 {
	 OFFSET 0 -1 0
	 }
}
MOTION
Frames: 10
Frame Time: 0.002
0.056160728454589845	-0.0016633520126342774	0		0.5767297973632812	-2.59660009765625	0		-1.0449390869140625	-0.016536741256713866	0		-0.6313588256835938	-2.788880859375	0		2.456735595703125	-1.163038818359375	0		3.783088623046875	-0.384406982421875	0		4.9118623046875	-0.038567283630371096	0		6.0059453125	0.48223779296875	0		-0.29222662353515627	5.86036572265625	0		
-0.013518209457397462	0.009834999084472657	0		0.5730905151367187	-2.580466064453125	0		-1.040657958984375	-0.012455145835876464	0		-0.563042724609375	-2.781153076171875	0		2.459100341796875	-1.144928955078125	0		3.76548876953125	-0.3591794128417969	0		4.92624267578125	-0.016512939453125	0		6.00620166015625	0.48237673950195314	0		-0.2939857788085937	5.86248486328125	0		
0.05673942947387695	-0.00144712495803833	0		0.5315848999023437	-2.5511240234375	0		-1.0483768310546875	-0.019309167861938478	0		-0.6007029418945312	-2.77983837890625	0		2.493414306640625	-1.1469990234375	0		3.765810302734375	-0.3590542297363281	0		4.9425947265625	-0.010471954345703124	0		5.9984306640625	0.4665577087402344	0		-0.3077502136230469	5.85266748046875	0		
-0.017919681549072267	-0.004927318096160888	0		0.558808837890625	-2.57816748046875	0		-1.0620257568359375	-0.021133232116699218	0		-0.57328369140625	-2.771887939453125	0		2.4908427734375	-1.1358673095703125	0		3.78321826171875	-0.35102731323242187	0		4.92895068359375	-0.011268173217773438	0		5.9987900390625	0.4666898193359375	0		-0.32247726440429686	5.84185302734375	0		
-0.026527267456054687	-0.002778512001037598	0		0.534224365234375	-2.573927490234375	0		-1.0497000732421875	-0.031105466842651367	0		-0.6318833618164063	-2.77046435546875	0		2.49324560546875	-1.1327679443359375	0		3.830622314453125	-0.3471716613769531	0		4.93831982421875	-0.0131973876953125	0		5.99916943359375	0.4668162841796875	0		-0.30606765747070314	5.851861328125	0		
-0.022132761001586915	2.9359000921249387E-4	0		0.5725629272460937	-2.583041015625	0		-1.049322021484375	-0.031015560150146483	0		-0.5535057983398437	-2.7728046875	0		2.501689208984375	-1.121707275390625	0		3.801190673828125	-0.3128950500488281	0		4.9558466796875	0.013822830200195313	0		5.9996337890625	0.4829363098144531	0		-0.3057149047851562	5.85195458984375	0		
-0.013781856536865235	-6.607049703598023E-4	0		0.567001953125	-2.569915771484375	0		-1.0509210205078126	-0.022918758392333986	0		-0.5840877685546875	-2.76354541015625	0		2.501133544921875	-1.1066019287109374	0		3.82244287109375	-0.33190567016601563	0		4.95620263671875	0.013932022094726562	0		6.00798828125	0.4830061950683594	0		-0.3053818969726563	5.85204345703125	0		
-0.021453914642333986	4.697049856185913E-4	0		0.5894220581054688	-2.55394921875	0		-1.0536649169921875	-0.03481969451904297	0		-0.5587222900390625	-2.757599853515625	0		2.498520751953125	-1.0954898681640626	0		3.85194873046875	-0.29896609497070314	0		4.968634765625	0.033969329833984374	0		6.0042646484375	0.47513714599609375	0		-0.30508148193359375	5.85212841796875	0		
-0.02117405319213867	5.525299906730652E-4	0		0.5357392578125	-2.54856591796875	0		-1.053385009765625	-0.034740447998046875	0		-0.56737744140625	-2.74746923828125	0		2.529853759765625	-1.08656982421875	0		3.823235595703125	-0.2977095031738281	0		4.97295263671875	0.04104653930664062	0		6.00454296875	0.4752408752441406	0		-0.31988250732421875	5.84129345703125	0		
0.002037313938140869	-0.003494441032409668	0		0.59182568359375	-2.57679296875	0		-1.0531510009765626	-0.034663707733154296	0		-0.5891399536132812	-2.748269287109375	0		2.532107666015625	-1.08349267578125	0		3.83455859375	-0.2816780700683594	0		4.97521875	0.04713095092773437	0		5.996775390625	0.4753846130371094	0		-0.30461251831054686	5.85128955078125	0		
